<svg width="32" height="32" viewBox="0 0 32 32" fill="none" xmlns="http://www.w3.org/2000/svg">
<g clip-path="url(#clip0_3319_4584)">
<path d="M17.2534 15.9999L24.6223 8.63106C24.7679 8.46101 24.844 8.24228 24.8353 8.01857C24.8267 7.79485 24.734 7.58264 24.5757 7.42434C24.4174 7.26603 24.2051 7.17329 23.9814 7.16465C23.7577 7.15601 23.539 7.2321 23.3689 7.37773L16 14.7466L8.63116 7.36884C8.46377 7.20146 8.23676 7.10742 8.00004 7.10742C7.76333 7.10742 7.53631 7.20146 7.36893 7.36884C7.20155 7.53622 7.10752 7.76324 7.10752 7.99995C7.10752 8.23666 7.20155 8.46368 7.36893 8.63106L14.7467 15.9999L7.36893 23.3688C7.27588 23.4485 7.20031 23.5466 7.14695 23.6569C7.0936 23.7671 7.06362 23.8873 7.05889 24.0097C7.05416 24.1321 7.07479 24.2542 7.11948 24.3682C7.16417 24.4823 7.23195 24.5859 7.31858 24.6725C7.4052 24.7592 7.5088 24.8269 7.62287 24.8716C7.73693 24.9163 7.85901 24.9369 7.98142 24.9322C8.10384 24.9275 8.22396 24.8975 8.33424 24.8441C8.44452 24.7908 8.54258 24.7152 8.62227 24.6222L16 17.2533L23.3689 24.6222C23.539 24.7678 23.7577 24.8439 23.9814 24.8352C24.2051 24.8266 24.4174 24.7339 24.5757 24.5756C24.734 24.4173 24.8267 24.205 24.8353 23.9813C24.844 23.7576 24.7679 23.5389 24.6223 23.3688L17.2534 15.9999Z" fill="#202025"/>
</g>
<defs>
<clipPath id="clip0_3319_4584">
<rect width="32" height="32" fill="white"/>
</clipPath>
</defs>
</svg>
